<svg width="512" height="512" viewBox="0 0 512 512" fill="none" xmlns="http://www.w3.org/2000/svg">
  <rect width="512" height="512" rx="112" fill="#080819"/>
  <rect x="28" y="28" width="456" height="456" rx="92" fill="url(#paint0_radial)" stroke="#6D5DFB" stroke-width="8"/>
  <path d="M256 102L389 166L256 230L123 166L256 102Z" fill="url(#paint1_linear)"/>
  <path d="M161 208V282C161 310 203 340 256 340C309 340 351 310 351 282V208L256 254L161 208Z" fill="#15153A" stroke="#9B7CFF" stroke-width="16" stroke-linejoin="round"/>
  <path d="M386 171V274" stroke="#00E0C6" stroke-width="18" stroke-linecap="round"/>
  <circle cx="386" cy="304" r="22" fill="#00E0C6"/>
  <path d="M214 374H298" stroke="#F8FAFC" stroke-width="18" stroke-linecap="round"/>
  <path d="M186 414H326" stroke="#9B7CFF" stroke-width="18" stroke-linecap="round"/>
  <path d="M256 128L339 168L256 208L173 168L256 128Z" fill="#F8FAFC" fill-opacity="0.16"/>
  <defs>
    <radialGradient id="paint0_radial" cx="0" cy="0" r="1" gradientUnits="userSpaceOnUse" gradientTransform="translate(166 102) rotate(53.8) scale(440 430)">
      <stop stop-color="#25135E"/>
      <stop offset="0.46" stop-color="#111133"/>
      <stop offset="1" stop-color="#050511"/>
    </radialGradient>
    <linearGradient id="paint1_linear" x1="123" y1="102" x2="365" y2="245" gradientUnits="userSpaceOnUse">
      <stop stop-color="#00E0C6"/>
      <stop offset="0.5" stop-color="#6D5DFB"/>
      <stop offset="1" stop-color="#C64CFF"/>
    </linearGradient>
  </defs>
</svg>
